<svg width="157" height="75" viewBox="0 0 157 75" fill="none" xmlns="http://www.w3.org/2000/svg">
<path d="M26.0977 29.0039V39H22.1484V26.3203H25.8516L26.0977 29.0039ZM25.6172 32.2266L24.7148 32.25C24.7148 31.3594 24.8203 30.5391 25.0312 29.7891C25.2422 29.0391 25.5547 28.3867 25.9688 27.832C26.3828 27.2773 26.8906 26.8477 27.4922 26.543C28.1016 26.2383 28.8047 26.0859 29.6016 26.0859C30.1562 26.0859 30.6602 26.1719 31.1133 26.3438C31.5664 26.5078 31.957 26.7695 32.2852 27.1289C32.6133 27.4805 32.8633 27.9414 33.0352 28.5117C33.2148 29.0742 33.3047 29.75 33.3047 30.5391V39H29.3555V31.043C29.3555 30.5039 29.293 30.0977 29.168 29.8242C29.0508 29.5508 28.8789 29.3672 28.6523 29.2734C28.4258 29.1797 28.1484 29.1328 27.8203 29.1328C27.4766 29.1328 27.168 29.2109 26.8945 29.3672C26.6211 29.5234 26.3867 29.7422 26.1914 30.0234C26.0039 30.2969 25.8594 30.6211 25.7578 30.9961C25.6641 31.3711 25.6172 31.7812 25.6172 32.2266ZM32.8594 32.2266L31.7578 32.25C31.7578 31.3594 31.8555 30.5391 32.0508 29.7891C32.2539 29.0391 32.5547 28.3867 32.9531 27.832C33.3594 27.2773 33.8633 26.8477 34.4648 26.543C35.0664 26.2383 35.7656 26.0859 36.5625 26.0859C37.1406 26.0859 37.6719 26.1719 38.1562 26.3438C38.6406 26.5156 39.0586 26.793 39.4102 27.1758C39.7617 27.5586 40.0352 28.0664 40.2305 28.6992C40.4258 29.3242 40.5234 30.0977 40.5234 31.0195V39H36.5625V31.0195C36.5625 30.4961 36.5 30.1016 36.375 29.8359C36.2578 29.5625 36.0859 29.3789 35.8594 29.2852C35.6328 29.1836 35.3633 29.1328 35.0508 29.1328C34.6758 29.1328 34.3516 29.2109 34.0781 29.3672C33.8047 29.5234 33.5742 29.7422 33.3867 30.0234C33.207 30.2969 33.0742 30.6211 32.9883 30.9961C32.9023 31.3711 32.8594 31.7812 32.8594 32.2266ZM49.3711 35.8125V30.5859C49.3711 30.2266 49.3203 29.918 49.2188 29.6602C49.1172 29.4023 48.957 29.2031 48.7383 29.0625C48.5195 28.9141 48.2266 28.8398 47.8594 28.8398C47.5625 28.8398 47.3086 28.8906 47.0977 28.9922C46.8867 29.0938 46.7266 29.2461 46.6172 29.4492C46.5078 29.6523 46.4531 29.9102 46.4531 30.2227H42.5039C42.5039 29.6367 42.6328 29.0938 42.8906 28.5938C43.1562 28.0859 43.5312 27.6445 44.0156 27.2695C44.5078 26.8945 45.0938 26.6055 45.7734 26.4023C46.4609 26.1914 47.2266 26.0859 48.0703 26.0859C49.0781 26.0859 49.9766 26.2539 50.7656 26.5898C51.5625 26.9258 52.1914 27.4297 52.6523 28.1016C53.1133 28.7656 53.3438 29.6016 53.3438 30.6094V35.8008C53.3438 36.6289 53.3906 37.2578 53.4844 37.6875C53.5781 38.1094 53.7109 38.4805 53.8828 38.8008V39H49.9219C49.7344 38.6094 49.5938 38.1328 49.5 37.5703C49.4141 37 49.3711 36.4141 49.3711 35.8125ZM49.8516 31.2539L49.875 33.3633H48.1289C47.7617 33.3633 47.4492 33.4141 47.1914 33.5156C46.9414 33.6172 46.7383 33.7578 46.582 33.9375C46.4336 34.1094 46.3242 34.3047 46.2539 34.5234C46.1914 34.7422 46.1602 34.9727 46.1602 35.2148C46.1602 35.4492 46.2148 35.6602 46.3242 35.8477C46.4414 36.0273 46.5977 36.168 46.793 36.2695C46.9883 36.3711 47.207 36.4219 47.4492 36.4219C47.8867 36.4219 48.2578 36.3398 48.5625 36.1758C48.875 36.0039 49.1133 35.7969 49.2773 35.5547C49.4414 35.3125 49.5234 35.0859 49.5234 34.875L50.3906 36.4922C50.2344 36.8047 50.0547 37.1211 49.8516 37.4414C49.6562 37.7617 49.4102 38.0586 49.1133 38.332C48.8242 38.5977 48.4688 38.8164 48.0469 38.9883C47.625 39.1523 47.1133 39.2344 46.5117 39.2344C45.7305 39.2344 45.0117 39.0742 44.3555 38.7539C43.707 38.4336 43.1875 37.9883 42.7969 37.418C42.4062 36.8398 42.2109 36.1758 42.2109 35.4258C42.2109 34.7695 42.3281 34.1836 42.5625 33.668C42.8047 33.1523 43.168 32.7148 43.6523 32.3555C44.1367 31.9961 44.7539 31.7227 45.5039 31.5352C46.2539 31.3477 47.1367 31.2539 48.1523 31.2539H49.8516ZM59.5195 20.9883V39H55.5703V20.9883H59.5195ZM67.6289 26.3203L62.1211 32.7773L59.2383 35.6602L57.5156 33.1523L59.918 30.0234L62.8945 26.3203H67.6289ZM63.3984 39L60.0117 33.2227L62.9297 31.1484L67.9219 39H63.3984ZM74.5664 39.2344C73.5352 39.2344 72.6133 39.0742 71.8008 38.7539C70.9883 38.4258 70.3008 37.9766 69.7383 37.4062C69.1836 36.8359 68.7578 36.1797 68.4609 35.4375C68.1719 34.6953 68.0273 33.9102 68.0273 33.082V32.6367C68.0273 31.707 68.1562 30.8477 68.4141 30.0586C68.6719 29.2617 69.0547 28.5664 69.5625 27.9727C70.0703 27.3789 70.707 26.918 71.4727 26.5898C72.2383 26.2539 73.1289 26.0859 74.1445 26.0859C75.043 26.0859 75.8477 26.2305 76.5586 26.5195C77.2695 26.8086 77.8711 27.2227 78.3633 27.7617C78.8633 28.3008 79.2422 28.9531 79.5 29.7188C79.7656 30.4844 79.8984 31.3438 79.8984 32.2969V33.9023H69.5391V31.4297H76.043V31.125C76.0508 30.7031 75.9766 30.3438 75.8203 30.0469C75.6719 29.75 75.4531 29.5234 75.1641 29.3672C74.875 29.2109 74.5234 29.1328 74.1094 29.1328C73.6797 29.1328 73.3242 29.2266 73.043 29.4141C72.7695 29.6016 72.5547 29.8594 72.3984 30.1875C72.25 30.5078 72.1445 30.8789 72.082 31.3008C72.0195 31.7227 71.9883 32.168 71.9883 32.6367V33.082C71.9883 33.5508 72.0508 33.9766 72.1758 34.3594C72.3086 34.7422 72.4961 35.0703 72.7383 35.3438C72.9883 35.6094 73.2852 35.8164 73.6289 35.9648C73.9805 36.1133 74.3789 36.1875 74.8242 36.1875C75.3633 36.1875 75.8945 36.0859 76.418 35.8828C76.9414 35.6797 77.3906 35.3438 77.7656 34.875L79.5586 37.0078C79.3008 37.375 78.9336 37.7305 78.457 38.0742C77.9883 38.418 77.4258 38.6992 76.7695 38.918C76.1133 39.1289 75.3789 39.2344 74.5664 39.2344Z" fill="white"/>
<path d="M106.086 24.848L103.018 40.2735H98.7747L99.0615 38.7539C97.7808 39.9199 96.2038 40.5029 94.3306 40.5029C93.1264 40.5029 92.0177 40.2257 91.0047 39.6714C89.9916 39.1171 89.1792 38.3238 88.5675 37.2916C87.975 36.2403 87.6787 35.0074 87.6787 33.593C87.6787 31.8918 88.0514 30.3626 88.7969 29.0055C89.5615 27.6292 90.5937 26.5588 91.8935 25.7942C93.1933 25.0105 94.6269 24.6187 96.1943 24.6187C98.5645 24.6187 100.237 25.3928 101.212 26.9411L101.613 24.848H106.086ZM95.7068 36.8042C96.5861 36.8042 97.3698 36.594 98.0579 36.1734C98.7461 35.7338 99.2813 35.1317 99.6636 34.3671C100.046 33.6025 100.237 32.7233 100.237 31.7293C100.237 30.678 99.9216 29.8465 99.2908 29.2348C98.6792 28.6232 97.819 28.3173 96.7104 28.3173C95.8311 28.3173 95.0474 28.5372 94.3593 28.9768C93.6711 29.3973 93.1359 29.9899 92.7536 30.7544C92.3713 31.519 92.1802 32.3983 92.1802 33.3923C92.1802 34.4436 92.486 35.2751 93.0977 35.8867C93.7285 36.4984 94.5982 36.8042 95.7068 36.8042Z" fill="url(#paint0_linear_2_29)"/>
<path d="M111.632 40.5029C110.294 40.5029 109.023 40.3595 107.819 40.0728C106.634 39.767 105.707 39.3751 105.038 38.8973L106.758 35.6573C107.427 36.097 108.239 36.4506 109.195 36.7182C110.17 36.9858 111.145 37.1196 112.119 37.1196C113.133 37.1196 113.888 36.9954 114.385 36.7469C114.882 36.4793 115.13 36.1065 115.13 35.6287C115.13 35.2464 114.91 34.9692 114.471 34.7972C114.031 34.6252 113.324 34.4436 112.349 34.2524C111.24 34.0422 110.323 33.8128 109.596 33.5643C108.889 33.3158 108.268 32.9144 107.733 32.3601C107.217 31.7866 106.959 31.0125 106.959 30.0376C106.959 28.3364 107.666 27.008 109.08 26.0523C110.514 25.0965 112.387 24.6187 114.7 24.6187C115.77 24.6187 116.812 24.7333 117.825 24.9627C118.838 25.1921 119.698 25.5075 120.406 25.9089L118.8 29.1775C117.538 28.3938 116.019 28.0019 114.241 28.0019C113.266 28.0019 112.521 28.1453 112.005 28.432C111.508 28.7187 111.259 29.0819 111.259 29.5216C111.259 29.923 111.479 30.2192 111.919 30.4104C112.358 30.5824 113.094 30.7736 114.127 30.9838C115.216 31.1941 116.105 31.4235 116.793 31.6719C117.5 31.9013 118.112 32.2932 118.628 32.8475C119.144 33.4018 119.402 34.1568 119.402 35.1126C119.402 36.8329 118.676 38.1614 117.223 39.098C115.79 40.0346 113.926 40.5029 111.632 40.5029Z" fill="url(#paint1_linear_2_29)"/>
<path d="M131.595 31.5573L136.899 40.2735H131.71L128.04 34.2811L125.316 36.5462L124.57 40.2735H120.097L124.341 18.999H128.814L126.434 30.8978L133.831 24.848H139.652L131.595 31.5573Z" fill="url(#paint2_linear_2_29)"/>
<path d="M81.0842 15.9024V8.73438C81.0842 5.56737 83.6516 3 86.8186 3H148.463C151.63 3 154.198 5.56737 154.198 8.73438V48.8751C154.198 52.0421 151.63 54.6094 148.463 54.6094H138.428L141.782 70.2603C142.075 71.6282 140.436 72.563 139.408 71.6141L124.092 57.4766H86.8186C83.6516 57.4766 81.0842 54.9093 81.0842 51.7422V48.8751" stroke="url(#paint3_linear_2_29)" stroke-width="4.30079"/>
<defs>
<linearGradient id="paint0_linear_2_29" x1="87.6787" y1="18.999" x2="99.7578" y2="53.1105" gradientUnits="userSpaceOnUse">
<stop stop-color="#F05454"/>
<stop offset="1" stop-color="#FF9966"/>
</linearGradient>
<linearGradient id="paint1_linear_2_29" x1="87.6787" y1="18.999" x2="99.7578" y2="53.1105" gradientUnits="userSpaceOnUse">
<stop stop-color="#F05454"/>
<stop offset="1" stop-color="#FF9966"/>
</linearGradient>
<linearGradient id="paint2_linear_2_29" x1="87.6787" y1="18.999" x2="99.7578" y2="53.1105" gradientUnits="userSpaceOnUse">
<stop stop-color="#F05454"/>
<stop offset="1" stop-color="#FF9966"/>
</linearGradient>
<linearGradient id="paint3_linear_2_29" x1="81.0842" y1="3" x2="141.295" y2="77.547" gradientUnits="userSpaceOnUse">
<stop stop-color="#F05454"/>
<stop offset="1" stop-color="#FF9966"/>
</linearGradient>
</defs>
</svg>
